<svg width="15" height="15" viewBox="0 0 15 15" fill="none" xmlns="http://www.w3.org/2000/svg">
<path d="M7.5 0C6.90825 0 6.42857 0.479705 6.42857 1.07143V6.42856H1.07143C0.479705 6.42856 0 6.90826 0 7.50001C0 8.09176 0.479705 8.57143 1.07143 8.57143H6.42857V13.9286C6.42857 14.5203 6.90825 15 7.5 15C8.09175 15 8.57143 14.5203 8.57143 13.9286V8.57143H13.9286C14.5203 8.57143 15 8.09176 15 7.50001C15 6.90826 14.5203 6.42856 13.9286 6.42856H8.57143V1.07143C8.57143 0.479705 8.09175 0 7.5 0Z" fill="black" fill-opacity="0.4"/>
</svg>
