<svg width="21" height="16" viewBox="0 0 21 16" fill="none" xmlns="http://www.w3.org/2000/svg">
<path d="M5.08823 5.91116L0.641176 10.5229C0.452941 10.7181 0.452941 11.0597 0.641176 11.255L5.08823 15.8667C5.37059 16.1595 5.84118 15.9399 5.84118 15.5007V12.4994H12.1C12.3353 12.4994 12.5 12.3042 12.5 12.0846V9.7177C12.5 9.47369 12.3118 9.30288 12.1 9.30288H5.84118V6.27717C5.84118 5.83795 5.37059 5.61835 5.08823 5.91116Z" fill="#455A64"/>
<path d="M20.3501 4.7451L15.7305 0.133326C15.4372 -0.159485 14.9483 0.0601229 14.9483 0.499339V3.52505H8.47106C8.22664 3.52505 8.05554 3.72026 8.05554 3.93987V6.30676C8.05554 6.55076 8.25108 6.72157 8.47106 6.72157H14.9728V9.72288C14.9728 10.1621 15.4616 10.3817 15.7549 10.0889L20.3746 5.47713C20.5457 5.28192 20.5457 4.94031 20.3501 4.7451Z" fill="#455A64"/>
</svg>
