<svg width="13" height="8" viewBox="0 0 13 8" fill="none" xmlns="http://www.w3.org/2000/svg">
<path d="M13 7.33251C12.9999 7.18131 12.9441 7.03463 12.8418 6.91654L7.06415 0.250297C6.99649 0.172199 6.91067 0.109152 6.81303 0.0658244C6.71539 0.0224972 6.60844 2.88864e-07 6.5001 2.84129e-07C6.39177 2.79393e-07 6.28482 0.0224972 6.18718 0.0658244C6.08954 0.109152 6.00372 0.172199 5.93606 0.250297L0.158375 6.91654C0.099099 6.98491 0.0549927 7.06339 0.0285745 7.14749C0.00215638 7.2316 -0.00605607 7.31968 0.00440582 7.40672C0.0148677 7.49375 0.0437993 7.57803 0.0895485 7.65474C0.135298 7.73146 0.196969 7.7991 0.27104 7.85381C0.345112 7.90853 0.430134 7.94924 0.521251 7.97362C0.612368 7.99801 0.707797 8.00559 0.802088 7.99593C0.896379 7.98628 0.987687 7.95957 1.0708 7.91734C1.15391 7.87512 1.22719 7.81819 1.28647 7.74982L6.5001 1.73287L11.7137 7.74849C11.8072 7.85636 11.9346 7.93477 12.0785 7.97289C12.2223 8.01101 12.3754 8.00696 12.5166 7.96129C12.6578 7.91562 12.7802 7.83059 12.8668 7.71795C12.9534 7.60532 12.9999 7.47063 13 7.33251Z" fill="#455A64"/>
</svg>
