<svg width="8" height="13" viewBox="0 0 8 13" fill="none" xmlns="http://www.w3.org/2000/svg">
<path d="M7.33251 9.53674e-07C7.18131 8.7738e-05 7.03463 0.0558605 6.91654 0.158165L0.250297 5.93585C0.172199 6.00351 0.109151 6.08933 0.0658241 6.18697C0.0224969 6.28461 0 6.39156 0 6.4999C0 6.60823 0.0224969 6.71518 0.0658241 6.81282C0.109151 6.91046 0.172199 6.99628 0.250297 7.06394L6.91654 12.8416C6.98491 12.9009 7.06339 12.945 7.14749 12.9714C7.2316 12.9978 7.31968 13.0061 7.40672 12.9956C7.49375 12.9851 7.57803 12.9562 7.65474 12.9105C7.73146 12.8647 7.7991 12.803 7.85381 12.729C7.90853 12.6549 7.94924 12.5699 7.97362 12.4787C7.99801 12.3876 8.00559 12.2922 7.99593 12.1979C7.98628 12.1036 7.95957 12.0123 7.91734 11.9292C7.87512 11.8461 7.81819 11.7728 7.74982 11.7135L1.73287 6.4999L7.74849 1.28626C7.85636 1.19281 7.93477 1.06536 7.97289 0.921543C8.01101 0.777722 8.00696 0.624623 7.96129 0.483406C7.91562 0.34219 7.83059 0.219829 7.71795 0.133231C7.60531 0.0466347 7.47063 8.01086e-05 7.33251 9.53674e-07Z" fill="#335980"/>
</svg>
