<svg width="30" height="15" viewBox="0 0 30 15" fill="none" xmlns="http://www.w3.org/2000/svg">
<path d="M29 13V2C29 1.44772 28.5523 1 28 1H8.26325C8.01481 1 7.77527 1.09248 7.59129 1.25942L1.78415 6.5285C1.35851 6.9147 1.34524 7.57935 1.75511 7.98224L4.4386 10.62L7.58538 13.7132C7.7724 13.897 8.02414 14 8.28638 14H28C28.5523 14 29 13.5523 29 13Z" stroke="#F76157" stroke-width="1.5"/>
<path d="M18.6628 7.49998L21.5191 4.40147C21.8147 4.0808 21.8147 3.56116 21.5191 3.24049C21.2235 2.91982 20.7444 2.91982 20.4489 3.24049L17.5926 6.33901L14.7364 3.24049C14.4408 2.91982 13.9618 2.91982 13.6662 3.24049C13.3706 3.56116 13.3706 4.0808 13.6662 4.40147L16.5224 7.49998L13.6662 10.5985C13.3706 10.9192 13.3706 11.4388 13.6662 11.7595C13.9618 12.0802 14.4408 12.0802 14.7364 11.7595L17.5926 8.66096L20.4489 11.7595C20.7444 12.0802 21.2235 12.0802 21.5191 11.7595C21.8147 11.4388 21.8147 10.9192 21.5191 10.5985L18.6628 7.49998Z" fill="#F76157"/>
</svg>
