<svg width="18" height="14" viewBox="0 0 18 14" fill="none" xmlns="http://www.w3.org/2000/svg">
<path d="M3 0H0.6C0.2688 0 0 0.261334 0 0.583335V2.91667C0 3.23867 0.2688 3.50001 0.6 3.50001C0.9312 3.50001 1.2 3.23867 1.2 2.91667V1.16667H3C3.3312 1.16667 3.6 0.905335 3.6 0.583335C3.6 0.261334 3.3312 0 3 0Z" fill="#16CCCF"/>
<path d="M17.3999 10.5C17.0687 10.5 16.7999 10.7613 16.7999 11.0833V12.8333H14.9999C14.6687 12.8333 14.3999 13.0947 14.3999 13.4167C14.3999 13.7387 14.6687 14 14.9999 14H17.3999C17.7311 14 17.9999 13.7387 17.9999 13.4167V11.0833C17.9999 10.7613 17.7311 10.5 17.3999 10.5Z" fill="#16CCCF"/>
<path d="M17.3999 0H14.9999C14.6687 0 14.3999 0.261334 14.3999 0.583335C14.3999 0.905335 14.6687 1.16667 14.9999 1.16667H16.7999V2.91667C16.7999 3.23867 17.0687 3.50001 17.3999 3.50001C17.7311 3.50001 17.9999 3.23867 17.9999 2.91667V0.583335C17.9999 0.261334 17.7311 0 17.3999 0Z" fill="#16CCCF"/>
<path d="M3 12.8333H1.2V11.0833C1.2 10.7613 0.9312 10.5 0.6 10.5C0.2688 10.5 0 10.7613 0 11.0833V13.4167C0 13.7387 0.2688 14 0.6 14H3C3.3312 14 3.6 13.7387 3.6 13.4167C3.6 13.0947 3.3312 12.8333 3 12.8333Z" fill="#16CCCF"/>
<path d="M3.5999 2.33331H2.3999V11.6667H3.5999V2.33331Z" fill="#16CCCF"/>
<path d="M5.9998 2.33331H4.7998V9.33333H5.9998V2.33331Z" fill="#16CCCF"/>
<path d="M8.40019 2.33331H7.2002V9.33333H8.40019V2.33331Z" fill="#16CCCF"/>
<path d="M10.8001 2.33331H9.6001V11.6667H10.8001V2.33331Z" fill="#16CCCF"/>
<path d="M13.2 2.33331H12V9.33333H13.2V2.33331Z" fill="#16CCCF"/>
<path d="M15.5999 2.33331H14.3999V11.6667H15.5999V2.33331Z" fill="#16CCCF"/>
<path d="M5.9998 10.5H4.7998V11.6667H5.9998V10.5Z" fill="#16CCCF"/>
<path d="M8.40019 10.5H7.2002V11.6667H8.40019V10.5Z" fill="#16CCCF"/>
<path d="M13.2 10.5H12V11.6667H13.2V10.5Z" fill="#16CCCF"/>
</svg>
