<svg width="22" height="22" viewBox="0 0 22 22" fill="none" xmlns="http://www.w3.org/2000/svg">
<path d="M13.9269 18.0349L10.5063 18.0452C10.3117 18.0499 10.1395 18.1774 10.0986 18.3666C10.0577 18.5559 10.0168 18.7451 10.0146 18.9205C10.011 20.1216 11.002 21.1172 12.2223 21.114C13.4426 21.1108 14.4186 20.1267 14.4152 18.9062C14.4175 18.7309 14.3935 18.5432 14.3433 18.3431C14.2807 18.1693 14.1023 18.0373 13.9269 18.0349Z" fill="#455A64"/>
<path d="M19.6952 15.2142C19.6454 14.9594 19.5399 14.7247 19.3734 14.5539C19.3667 14.5354 18.0505 13.0374 18.0396 9.16026C18.0435 6.43161 16.5333 4.39514 14.0167 3.64423L14.0115 3.16358C13.9997 2.13988 13.174 1.30442 12.1497 1.31667C11.1255 1.32893 10.2892 2.15458 10.3011 3.17828L10.3129 3.6775C7.78794 4.41907 6.31165 6.44026 6.30774 9.16891C6.31861 13.0461 5.01108 14.5449 5.01108 14.5449C4.82822 14.7367 4.70259 14.9707 4.66467 15.2152C4.65946 15.259 4.65426 15.3028 4.64905 15.3466L4.64525 16.5018C4.64077 16.8391 4.9284 17.1131 5.25916 17.0989L19.1086 17.0828C19.4461 17.0872 19.7204 16.7996 19.7063 16.469L19.7101 15.3138C19.7034 15.2952 19.7086 15.2514 19.6952 15.2142Z" fill="#455A64"/>
</svg>
