<svg width="32" height="36" viewBox="0 0 32 36" fill="none" xmlns="http://www.w3.org/2000/svg">
<path d="M32 32.88V3.12C32 2.29252 31.6758 1.49894 31.0987 0.913827C30.5216 0.328713 29.7389 0 28.9228 0H3.07721C2.26108 0 1.47838 0.328713 0.901293 0.913827C0.324205 1.49894 0 2.29252 0 3.12V32.88C0 33.7075 0.324205 34.5011 0.901293 35.0862C1.47838 35.6713 2.26108 36 3.07721 36H28.9228C29.7389 36 30.5216 35.6713 31.0987 35.0862C31.6758 34.5011 32 33.7075 32 32.88ZM8.39205 23.88C8.39205 24.1505 8.28606 24.41 8.09739 24.6012C7.90873 24.7925 7.65285 24.9 7.38604 24.9H5.60703C5.34022 24.9 5.08433 24.7925 4.89567 24.6012C4.70701 24.41 4.60102 24.1505 4.60102 23.88V22.08C4.60102 21.8095 4.70701 21.55 4.89567 21.3588C5.08433 21.1675 5.34022 21.06 5.60703 21.06H7.38234C7.64915 21.06 7.90503 21.1675 8.0937 21.3588C8.28236 21.55 8.38835 21.8095 8.38835 22.08L8.39205 23.88ZM8.39205 17.4788C8.39205 17.7493 8.28606 18.0087 8.09739 18.2C7.90873 18.3913 7.65285 18.4988 7.38604 18.4988H5.61073C5.34421 18.4978 5.0889 18.39 4.90045 18.1989C4.71199 18.0078 4.60569 17.749 4.60472 17.4788V15.6788C4.60472 15.4082 4.71071 15.1488 4.89937 14.9575C5.08803 14.7662 5.34391 14.6588 5.61073 14.6588H7.38604C7.65255 14.6597 7.90787 14.7675 8.09632 14.9586C8.28477 15.1497 8.39107 15.4085 8.39205 15.6788V17.4788ZM14.7018 30.285C14.7008 30.5552 14.5945 30.8141 14.4061 31.0052C14.2176 31.1962 13.9623 31.304 13.6958 31.305H11.9316C11.6648 31.305 11.4089 31.1975 11.2202 31.0062C11.0316 30.815 10.9256 30.5555 10.9256 30.285V28.5C10.9241 28.3649 10.949 28.2309 10.9989 28.1056C11.0487 27.9804 11.1225 27.8664 11.216 27.7701C11.3096 27.6739 11.4209 27.5974 11.5437 27.5451C11.6665 27.4927 11.7984 27.4655 11.9316 27.465H13.7069C13.8393 27.4665 13.9702 27.4944 14.0919 27.5473C14.2136 27.6001 14.3239 27.6769 14.4163 27.773C14.5088 27.8692 14.5816 27.9829 14.6306 28.1076C14.6795 28.2324 14.7038 28.3657 14.7018 28.5V30.285ZM14.7018 23.8838C14.7008 24.154 14.5945 24.4128 14.4061 24.6039C14.2176 24.795 13.9623 24.9028 13.6958 24.9038H11.9316C11.6648 24.9038 11.4089 24.7963 11.2202 24.605C11.0316 24.4137 10.9256 24.1543 10.9256 23.8838V22.0875C10.9265 21.8173 11.0328 21.5584 11.2213 21.3673C11.4097 21.1763 11.6651 21.0685 11.9316 21.0675H13.7069C13.9737 21.0675 14.2296 21.175 14.4182 21.3663C14.6069 21.5575 14.7129 21.817 14.7129 22.0875L14.7018 23.8838ZM14.7018 17.4825C14.7008 17.7527 14.5945 18.0116 14.4061 18.2027C14.2176 18.3937 13.9623 18.5015 13.6958 18.5025H11.9316C11.6651 18.5015 11.4097 18.3937 11.2213 18.2027C11.0328 18.0116 10.9265 17.7527 10.9256 17.4825V15.6825C10.9275 15.4129 11.0342 15.155 11.2226 14.9648C11.4109 14.7745 11.6657 14.6672 11.9316 14.6663H13.7069C13.9734 14.6672 14.2287 14.775 14.4172 14.9661C14.6056 15.1572 14.7119 15.416 14.7129 15.6863L14.7018 17.4825ZM21.0153 30.285C21.0153 30.5555 20.9093 30.815 20.7206 31.0062C20.5319 31.1975 20.2761 31.305 20.0092 31.305H18.2191C17.9523 31.305 17.6964 31.1975 17.5078 31.0062C17.3191 30.815 17.2131 30.5555 17.2131 30.285V28.5C17.2112 28.3648 17.2357 28.2305 17.2854 28.1051C17.3351 27.9796 17.4089 27.8653 17.5025 27.769C17.5961 27.6727 17.7077 27.5962 17.8307 27.5441C17.9537 27.4919 18.0858 27.465 18.2191 27.465H19.9944C20.1291 27.463 20.2627 27.4884 20.3874 27.5397C20.5122 27.591 20.6255 27.6671 20.7207 27.7636C20.8159 27.8602 20.891 27.9751 20.9416 28.1015C20.9922 28.228 21.0173 28.3635 21.0153 28.5V30.285ZM21.0153 23.8838C21.0153 24.1543 20.9093 24.4137 20.7206 24.605C20.5319 24.7963 20.2761 24.9038 20.0092 24.9038H18.2191C17.9523 24.9038 17.6964 24.7963 17.5078 24.605C17.3191 24.4137 17.2131 24.1543 17.2131 23.8838V22.0837C17.2141 21.8139 17.3205 21.5554 17.5091 21.3649C17.6976 21.1744 17.953 21.0675 18.2191 21.0675H19.9944C20.2613 21.0675 20.5171 21.175 20.7058 21.3663C20.8945 21.5575 21.0005 21.817 21.0005 22.0875L21.0153 23.8838ZM21.0153 17.4825C21.0153 17.753 20.9093 18.0125 20.7206 18.2037C20.5319 18.395 20.2761 18.5025 20.0092 18.5025H18.2191C17.9526 18.5015 17.6973 18.3937 17.5089 18.2027C17.3204 18.0116 17.2141 17.7527 17.2131 17.4825V15.6825C17.2141 15.4126 17.3205 15.1542 17.5091 14.9637C17.6976 14.7732 17.953 14.6662 18.2191 14.6663H19.9944C20.261 14.6672 20.5163 14.775 20.7047 14.9661C20.8932 15.1572 20.9995 15.416 21.0005 15.6863L21.0153 17.4825ZM27.3287 30.285C27.3277 30.5552 27.2214 30.8141 27.033 31.0052C26.8445 31.1962 26.5892 31.304 26.3227 31.305H24.5474C24.2809 31.304 24.0256 31.1962 23.8371 31.0052C23.6487 30.8141 23.5424 30.5552 23.5414 30.285V28.5C23.5424 28.2298 23.6487 27.9709 23.8371 27.7798C24.0256 27.5888 24.2809 27.481 24.5474 27.48H26.3227C26.5892 27.481 26.8445 27.5888 27.033 27.7798C27.2214 27.9709 27.3277 28.2298 27.3287 28.5V30.285ZM27.3287 23.8462C27.3277 24.1165 27.2214 24.3753 27.033 24.5664C26.8445 24.7575 26.5892 24.8653 26.3227 24.8662H24.5474C24.2806 24.8662 24.0247 24.7588 23.836 24.5675C23.6474 24.3762 23.5414 24.1168 23.5414 23.8462V15.645C23.5424 15.3748 23.6487 15.1159 23.8371 14.9248C24.0256 14.7338 24.2809 14.626 24.5474 14.625H26.3227C26.5892 14.626 26.8445 14.7338 27.033 14.9248C27.2214 15.1159 27.3277 15.3748 27.3287 15.645V23.8462ZM27.3287 9.64875C27.3277 9.91897 27.2214 10.1778 27.033 10.3689C26.8445 10.56 26.5892 10.6678 26.3227 10.6688H5.61073C5.34421 10.6678 5.0889 10.56 4.90045 10.3689C4.71199 10.1778 4.60569 9.91897 4.60472 9.64875V5.715C4.60472 5.44448 4.71071 5.18504 4.89937 4.99375C5.08803 4.80246 5.34391 4.695 5.61073 4.695H26.3227C26.5892 4.69599 26.8445 4.80377 27.033 4.99484C27.2214 5.18592 27.3277 5.44478 27.3287 5.715V9.64875Z" fill="#30304C"/>
</svg>
