<svg width="25" height="24" viewBox="0 0 25 24" fill="none" xmlns="http://www.w3.org/2000/svg">
<path fill-rule="evenodd" clip-rule="evenodd" d="M4.5 22H20.5V20H4.5V22ZM4.5 16H10.5V9H4.5V16ZM12.5 16H14.5V14H12.5V16ZM12.5 13H14.5V11H12.5V13ZM12.5 10H14.5V8H12.5V10ZM15.5 16H17.5V14H15.5V16ZM15.5 13H17.5V11H15.5V13ZM15.5 10H17.5V8H15.5V10ZM18.5 16H20.5V14H18.5V16ZM18.5 13H20.5V11H18.5V13ZM18.5 10H20.5V8H18.5V10ZM23.5 5H21.5V1C21.5 0.448 21.052 0 20.5 0H12.5C11.947 0 11.5 0.448 11.5 1V5H7.5V3H9.5V0H3.5V3H5.5V5H1.5C0.947 5 0.5 5.448 0.5 6V19C0.5 19.552 0.947 20 1.5 20H2.5V23C2.5 23.552 2.947 24 3.5 24H21.5C22.052 24 22.5 23.552 22.5 23V20H23.5C24.052 20 24.5 19.552 24.5 19V6C24.5 5.448 24.052 5 23.5 5Z" fill="#455A64"/>
</svg>
