<svg width="28" height="30" viewBox="0 0 28 30" fill="none" xmlns="http://www.w3.org/2000/svg">
<path d="M24.2007 0.206909H2.00987C1.42428 0.206909 0.931152 0.700038 0.931152 1.28563V27.8529C0.931152 28.3769 1.20854 28.87 1.67085 29.1166C2.13315 29.3632 2.68792 29.3323 3.11941 29.0549L5.03029 27.7605C5.43095 27.5139 5.92408 27.5139 6.32475 27.7605L8.60547 29.2707C9.06778 29.5789 9.68419 29.5789 10.1773 29.2707L12.458 27.7605C12.8587 27.5139 13.3518 27.5139 13.7525 27.7605L16.0332 29.2707C16.2798 29.4248 16.5572 29.5173 16.8037 29.5173C17.0811 29.5173 17.3585 29.4248 17.6051 29.2707L19.8858 27.7605C20.2865 27.5139 20.7796 27.5139 21.1803 27.7605L23.122 29.0549C23.5534 29.3323 24.1082 29.3632 24.5705 29.1166C25.0328 28.87 25.3102 28.3769 25.3102 27.8529V1.28563C25.2794 0.700038 24.7863 0.206909 24.2007 0.206909ZM6.13983 5.97035H13.0745C13.5059 5.97035 13.8758 6.30938 13.8758 6.77169C13.8758 7.20317 13.5368 7.57302 13.0745 7.57302H6.13983C5.70834 7.57302 5.33849 7.23399 5.33849 6.77169C5.33849 6.30938 5.70834 5.97035 6.13983 5.97035ZM6.13983 10.8708H13.0745C13.5059 10.8708 13.8758 11.2098 13.8758 11.6722C13.8758 12.1036 13.5368 12.4735 13.0745 12.4735H6.13983C5.70834 12.4735 5.33849 12.1345 5.33849 11.6722C5.33849 11.2407 5.70834 10.8708 6.13983 10.8708ZM20.0091 22.2436H6.13983C5.70834 22.2436 5.33849 21.9046 5.33849 21.4423C5.33849 20.98 5.67752 20.6409 6.13983 20.6409H20.0091C20.4406 20.6409 20.8104 20.98 20.8104 21.4423C20.8104 21.9046 20.4406 22.2436 20.0091 22.2436ZM20.0091 17.3431H6.13983C5.70834 17.3431 5.33849 17.0041 5.33849 16.5418C5.33849 16.1103 5.67752 15.7405 6.13983 15.7405H20.0091C20.4406 15.7405 20.8104 16.0795 20.8104 16.5418C20.7796 17.0041 20.4406 17.3431 20.0091 17.3431Z" fill="white"/>
<path d="M18.9854 13.5691L19.1614 12.7001C18.8901 12.6927 18.6334 12.6524 18.3914 12.5791L18.1934 13.5691H17.3904L17.6434 12.3151C17.0788 12.0217 16.6608 11.5927 16.3894 11.0281C16.1181 10.4634 15.9824 9.79239 15.9824 9.01506C15.9824 8.36973 16.0998 7.79406 16.3344 7.28806C16.5691 6.77473 16.9138 6.35673 17.3684 6.03406C17.8304 5.70406 18.3878 5.49873 19.0404 5.41806L19.2164 4.58206H20.0194L19.8544 5.37406C20.1258 5.38873 20.3861 5.42173 20.6354 5.47306L20.8114 4.58206H21.6144L21.3944 5.67106C21.4971 5.70773 21.5961 5.74806 21.6914 5.79206C21.7941 5.82873 21.8931 5.86906 21.9884 5.91306L21.4604 7.23306C21.4018 7.19639 21.3431 7.16706 21.2844 7.14506C21.2258 7.12306 21.1671 7.09739 21.1084 7.06806L20.2394 11.3361C20.4741 11.3067 20.7088 11.2591 20.9434 11.1931C21.1854 11.1271 21.4384 11.0464 21.7024 10.9511V12.3041C21.1524 12.5387 20.5731 12.6707 19.9644 12.7001L19.7884 13.5691H18.9854ZM19.4364 11.3581L20.3604 6.80406C20.2504 6.76739 20.1404 6.74539 20.0304 6.73806C19.9204 6.72339 19.8251 6.71606 19.7444 6.71606H19.5794L18.6774 11.1711C18.7874 11.2224 18.9048 11.2627 19.0294 11.2921C19.1614 11.3214 19.2971 11.3434 19.4364 11.3581ZM17.9954 10.5881L18.7434 6.90306C18.3841 7.07173 18.1091 7.33939 17.9184 7.70606C17.7278 8.06539 17.6324 8.50539 17.6324 9.02606C17.6324 9.35606 17.6618 9.65306 17.7204 9.91706C17.7791 10.1737 17.8708 10.3974 17.9954 10.5881Z" fill="#335980"/>
</svg>
