<svg width="22" height="23" viewBox="0 0 22 23" fill="none" xmlns="http://www.w3.org/2000/svg">
<path d="M18.7853 0H1.34766C0.887504 0 0.5 0.386961 0.5 0.846477V21.694C0.5 22.1052 0.717971 22.4921 1.08126 22.6856C1.44454 22.8791 1.88048 22.8549 2.21955 22.6372L3.72113 21.6215C4.03597 21.428 4.42348 21.428 4.73832 21.6215L6.53053 22.8065C6.89381 23.0484 7.37819 23.0484 7.7657 22.8065L9.5579 21.6215C9.87275 21.428 10.2603 21.428 10.5751 21.6215L12.3673 22.8065C12.5611 22.9274 12.779 23 12.9728 23C13.1908 23 13.4087 22.9274 13.6025 22.8065L15.3947 21.6215C15.7095 21.428 16.097 21.428 16.4119 21.6215L17.9377 22.6372C18.2767 22.8549 18.7127 22.8791 19.076 22.6856C19.4392 22.4921 19.6572 22.1052 19.6572 21.694V0.846477C19.633 0.386961 19.2455 0 18.7853 0ZM4.59301 4.52261H10.0423C10.3813 4.52261 10.672 4.78864 10.672 5.15142C10.672 5.49001 10.4056 5.78023 10.0423 5.78023H4.59301C4.25394 5.78023 3.96332 5.5142 3.96332 5.15142C3.96332 4.78864 4.25394 4.52261 4.59301 4.52261ZM4.59301 8.36803H10.0423C10.3813 8.36803 10.672 8.63407 10.672 8.99685C10.672 9.33544 10.4056 9.62566 10.0423 9.62566H4.59301C4.25394 9.62566 3.96332 9.35962 3.96332 8.99685C3.96332 8.65825 4.25394 8.36803 4.59301 8.36803ZM15.4916 17.2923H4.59301C4.25394 17.2923 3.96332 17.0263 3.96332 16.6635C3.96332 16.3007 4.22972 16.0347 4.59301 16.0347H15.4916C15.8306 16.0347 16.1212 16.3007 16.1212 16.6635C16.1212 17.0263 15.8306 17.2923 15.4916 17.2923ZM15.4916 13.4469H4.59301C4.25394 13.4469 3.96332 13.1809 3.96332 12.8181C3.96332 12.4795 4.22972 12.1893 4.59301 12.1893H15.4916C15.8306 12.1893 16.1212 12.4553 16.1212 12.8181C16.097 13.1809 15.8306 13.4469 15.4916 13.4469Z" fill="#455A64"/>
<path d="M14.1791 9.75903L14.2911 9.20603C14.1184 9.20136 13.9551 9.17569 13.8011 9.12903L13.6751 9.75903H13.1641L13.3251 8.96103C12.9658 8.77436 12.6998 8.50136 12.5271 8.14203C12.3544 7.78269 12.2681 7.35569 12.2681 6.86103C12.2681 6.45036 12.3428 6.08403 12.4921 5.76203C12.6414 5.43536 12.8608 5.16936 13.1501 4.96403C13.4441 4.75403 13.7988 4.62336 14.2141 4.57203L14.3261 4.04003H14.8371L14.7321 4.54403C14.9048 4.55336 15.0704 4.57436 15.2291 4.60703L15.3411 4.04003H15.8521L15.7121 4.73303C15.7774 4.75636 15.8404 4.78203 15.9011 4.81003C15.9664 4.83336 16.0294 4.85903 16.0901 4.88703L15.7541 5.72703C15.7168 5.70369 15.6794 5.68503 15.6421 5.67103C15.6048 5.65703 15.5674 5.64069 15.5301 5.62203L14.9771 8.33803C15.1264 8.31936 15.2758 8.28903 15.4251 8.24703C15.5791 8.20503 15.7401 8.15369 15.9081 8.09303V8.95403C15.5581 9.10336 15.1894 9.18736 14.8021 9.20603L14.6901 9.75903H14.1791ZM14.4661 8.35203L15.0541 5.45403C14.9841 5.43069 14.9141 5.41669 14.8441 5.41203C14.7741 5.40269 14.7134 5.39803 14.6621 5.39803H14.5571L13.9831 8.23303C14.0531 8.26569 14.1278 8.29136 14.2071 8.31003C14.2911 8.32869 14.3774 8.34269 14.4661 8.35203ZM13.5491 7.86203L14.0251 5.51703C13.7964 5.62436 13.6214 5.79469 13.5001 6.02803C13.3788 6.25669 13.3181 6.53669 13.3181 6.86803C13.3181 7.07803 13.3368 7.26703 13.3741 7.43503C13.4114 7.59836 13.4698 7.74069 13.5491 7.86203Z" fill="white"/>
</svg>
