<svg width="27" height="32" viewBox="0 0 27 32" fill="none" xmlns="http://www.w3.org/2000/svg">
<path d="M9.76468 11.7129C13.109 11.7129 15.8201 9.09085 15.8201 5.85643C15.8201 2.62201 13.109 0 9.76468 0C6.42035 0 3.70923 2.62201 3.70923 5.85643C3.70923 9.09085 6.42035 11.7129 9.76468 11.7129Z" fill="#455A64"/>
<path d="M15.5766 18.0741L16.4118 18.0067L17.073 17.4682C17.3166 17.2663 17.5951 17.098 17.8735 16.9634C16.8642 14.7756 14.6021 13.2947 12.0268 13.2947H7.50264C4.26611 13.2947 1.51679 15.6507 1.13397 18.7809L0.507549 23.8295C0.437946 24.5027 0.855563 25.1085 1.51679 25.2431C4.1269 25.7816 6.87621 26.0846 9.76473 26.0846C10.0779 26.0846 10.3912 26.0846 10.7044 26.0846C10.426 24.9739 10.7044 23.7958 11.5048 22.8871L12.0616 22.2813L12.1312 21.4398C12.2704 19.6223 13.7321 18.2423 15.5766 18.0741Z" fill="#455A64"/>
<path d="M18.0164 30.8611C21.7459 30.8611 24.788 27.8677 24.788 24.1523C24.788 20.4369 21.7459 17.4436 18.0164 17.4436C14.2869 17.4436 11.2449 20.4369 11.2449 24.1523C11.2449 27.8677 14.2869 30.8611 18.0164 30.8611Z" fill="#455A64" stroke="white" stroke-width="2"/>
<path d="M17.9986 28.0236L18.1586 27.2336C17.9119 27.2269 17.6786 27.1903 17.4586 27.1236L17.2786 28.0236H16.5486L16.7786 26.8836C16.2652 26.6169 15.8852 26.2269 15.6386 25.7136C15.3919 25.2003 15.2686 24.5903 15.2686 23.8836C15.2686 23.2969 15.3752 22.7736 15.5886 22.3136C15.8019 21.8469 16.1152 21.4669 16.5286 21.1736C16.9486 20.8736 17.4552 20.6869 18.0486 20.6136L18.2086 19.8536H18.9386L18.7886 20.5736C19.0352 20.5869 19.2719 20.6169 19.4986 20.6636L19.6586 19.8536H20.3886L20.1886 20.8436C20.2819 20.8769 20.3719 20.9136 20.4586 20.9536C20.5519 20.9869 20.6419 21.0236 20.7286 21.0636L20.2486 22.2636C20.1952 22.2303 20.1419 22.2036 20.0886 22.1836C20.0352 22.1636 19.9819 22.1403 19.9286 22.1136L19.1386 25.9936C19.3519 25.9669 19.5652 25.9236 19.7786 25.8636C19.9986 25.8036 20.2286 25.7303 20.4686 25.6436V26.8736C19.9686 27.0869 19.4419 27.2069 18.8886 27.2336L18.7286 28.0236H17.9986ZM18.4086 26.0136L19.2486 21.8736C19.1486 21.8403 19.0486 21.8203 18.9486 21.8136C18.8486 21.8003 18.7619 21.7936 18.6886 21.7936H18.5386L17.7186 25.8436C17.8186 25.8903 17.9252 25.9269 18.0386 25.9536C18.1586 25.9803 18.2819 26.0003 18.4086 26.0136ZM17.0986 25.3136L17.7786 21.9636C17.4519 22.1169 17.2019 22.3603 17.0286 22.6936C16.8552 23.0203 16.7686 23.4203 16.7686 23.8936C16.7686 24.1936 16.7952 24.4636 16.8486 24.7036C16.9019 24.9369 16.9852 25.1403 17.0986 25.3136Z" fill="white"/>
</svg>
