<svg width="8" height="9" viewBox="0 0 8 9" fill="none" xmlns="http://www.w3.org/2000/svg">
<path d="M5.03198 4.5L7.78622 1.40148C8.07126 1.08081 8.07126 0.561172 7.78622 0.240502C7.50118 -0.0801674 7.03928 -0.0801674 6.75424 0.240502L4 3.33902L1.24576 0.240502C0.960721 -0.0801674 0.49882 -0.0801674 0.21378 0.240502C-0.0712599 0.561172 -0.0712599 1.08081 0.21378 1.40148L2.96802 4.5L0.21378 7.59852C-0.0712599 7.91919 -0.0712599 8.43883 0.21378 8.7595C0.49882 9.08017 0.960721 9.08017 1.24576 8.7595L4 5.66098L6.75424 8.7595C7.03928 9.08017 7.50118 9.08017 7.78622 8.7595C8.07126 8.43883 8.07126 7.91919 7.78622 7.59852L5.03198 4.5Z" fill="black" fill-opacity="0.71"/>
</svg>
