<svg width="11" height="12" viewBox="0 0 11 12" fill="none" xmlns="http://www.w3.org/2000/svg">
<path d="M6.91897 6L10.7061 1.86864C11.098 1.44108 11.098 0.748229 10.7061 0.32067C10.3141 -0.10689 9.67901 -0.10689 9.28708 0.32067L5.5 4.45203L1.71292 0.32067C1.32099 -0.10689 0.685877 -0.10689 0.293947 0.32067C-0.0979824 0.748229 -0.0979824 1.44108 0.293947 1.86864L4.08103 6L0.293947 10.1314C-0.0979824 10.5589 -0.0979824 11.2518 0.293947 11.6793C0.685877 12.1069 1.32099 12.1069 1.71292 11.6793L5.5 7.54797L9.28708 11.6793C9.67901 12.1069 10.3141 12.1069 10.7061 11.6793C11.098 11.2518 11.098 10.5589 10.7061 10.1314L6.91897 6Z" fill="#455A64"/>
</svg>
