<svg width="24" height="23" viewBox="0 0 24 23" fill="none" xmlns="http://www.w3.org/2000/svg">
<circle cx="12" cy="11.5" r="11.5" fill="#455A64"/>
<path d="M7.1958 8.38672C7.1958 7.73242 7.4082 7.20264 7.83301 6.79736C8.25781 6.38721 8.81445 6.18213 9.50293 6.18213C10.2012 6.18213 10.7627 6.38477 11.1875 6.79004C11.6123 7.19043 11.8247 7.73486 11.8247 8.42334V8.95068C11.8247 9.60986 11.6123 10.1396 11.1875 10.54C10.7627 10.9404 10.2061 11.1406 9.51758 11.1406C8.82422 11.1406 8.2627 10.9404 7.83301 10.54C7.4082 10.1348 7.1958 9.59033 7.1958 8.90674V8.38672ZM8.60205 8.95068C8.60205 9.24365 8.68506 9.48047 8.85107 9.66113C9.02197 9.83691 9.24414 9.9248 9.51758 9.9248C9.79102 9.9248 10.0083 9.83447 10.1694 9.65381C10.3306 9.47314 10.4111 9.23145 10.4111 8.92871V8.38672C10.4111 8.09375 10.3306 7.85693 10.1694 7.67627C10.0083 7.49561 9.78613 7.40527 9.50293 7.40527C9.23438 7.40527 9.01709 7.49561 8.85107 7.67627C8.68506 7.85205 8.60205 8.09863 8.60205 8.41602V8.95068ZM12.2935 14.3853C12.2935 13.7261 12.5083 13.1963 12.938 12.7959C13.3677 12.3906 13.9243 12.188 14.6079 12.188C15.3013 12.188 15.8604 12.3882 16.2852 12.7886C16.7148 13.1841 16.9297 13.731 16.9297 14.4292V14.9565C16.9297 15.6108 16.7197 16.1406 16.2998 16.5459C15.8799 16.9463 15.3208 17.1465 14.6226 17.1465C13.9194 17.1465 13.3555 16.9438 12.9307 16.5386C12.5059 16.1333 12.2935 15.5962 12.2935 14.9272V14.3853ZM13.6997 14.9565C13.6997 15.2251 13.7876 15.4546 13.9634 15.645C14.1392 15.8354 14.3589 15.9307 14.6226 15.9307C15.2183 15.9307 15.5161 15.6011 15.5161 14.9419V14.3853C15.5161 14.0923 15.4331 13.8579 15.2671 13.6821C15.1011 13.5015 14.8813 13.4111 14.6079 13.4111C14.3345 13.4111 14.1147 13.5015 13.9487 13.6821C13.7827 13.8579 13.6997 14.0996 13.6997 14.4072V14.9565ZM9.93506 16.2017L8.90234 15.645L14.1099 7.31006L15.1426 7.8667L9.93506 16.2017Z" fill="white"/>
</svg>
