<svg width="13" height="8" viewBox="0 0 13 8" fill="none" xmlns="http://www.w3.org/2000/svg">
<path d="M1.91522e-06 0.667484C8.86798e-05 0.818686 0.0558614 0.965369 0.158166 1.08346L5.93585 7.7497C6.00351 7.8278 6.08933 7.89085 6.18697 7.93417C6.28461 7.9775 6.39156 8 6.4999 8C6.60823 8 6.71518 7.9775 6.81282 7.93418C6.91046 7.89085 6.99628 7.8278 7.06394 7.7497L12.8416 1.08346C12.9009 1.01509 12.945 0.936612 12.9714 0.852508C12.9978 0.768403 13.0061 0.680319 12.9956 0.593285C12.9851 0.506251 12.9562 0.421971 12.9105 0.345257C12.8647 0.268544 12.803 0.2009 12.729 0.146186C12.6549 0.0914721 12.5699 0.0507602 12.4787 0.0263752C12.3876 0.00199024 12.2922 -0.00558958 12.1979 0.00406684C12.1036 0.0137237 12.0123 0.040428 11.9292 0.0826562C11.8461 0.124884 11.7728 0.181809 11.7135 0.25018L6.4999 6.26713L1.28626 0.251511C1.19281 0.143641 1.06536 0.0652279 0.921544 0.0271076C0.777723 -0.0110137 0.624624 -0.00695868 0.483407 0.0387109C0.342191 0.0843799 0.21983 0.169409 0.133232 0.282047C0.0466357 0.394684 8.10883e-05 0.529368 1.91522e-06 0.667484Z" fill="#335980"/>
</svg>
