<svg width="13" height="15" viewBox="0 0 13 15" fill="none" xmlns="http://www.w3.org/2000/svg">
<path fill-rule="evenodd" clip-rule="evenodd" d="M4.625 0.625H8.375C9.06536 0.625 9.625 1.18464 9.625 1.875V2.5H11.5C12.1904 2.5 12.75 3.05964 12.75 3.75V5C12.75 5.69036 12.1904 6.25 11.5 6.25H11.4499L10.875 13.125C10.875 13.8154 10.3154 14.375 9.625 14.375H3.375C2.68464 14.375 2.125 13.8154 2.12716 13.1769L1.54991 6.25H1.5C0.809644 6.25 0.25 5.69036 0.25 5V3.75C0.25 3.05964 0.809644 2.5 1.5 2.5H3.375V1.875C3.375 1.18464 3.93464 0.625 4.625 0.625ZM1.5 3.75H3.375H9.625H11.5V5H1.5V3.75ZM2.80403 6.25H10.1957L9.62714 13.0731L9.62498 13.125H3.37498L2.80403 6.25ZM8.375 1.875V2.5H4.625V1.875H8.375Z" fill="#F76157"/>
</svg>
