<svg width="13" height="14" viewBox="0 0 13 14" fill="none" xmlns="http://www.w3.org/2000/svg">
<path d="M11.5007 14H0.500029C0.224013 14 0 13.7588 0 13.4615V1.61561C0 1.31839 0.224013 1.07716 0.500029 1.07716H6.50037C6.77639 1.07716 7.0004 1.31839 7.0004 1.61561C7.0004 1.91284 6.77639 2.15407 6.50037 2.15407H1.00006V12.9231H11.0006V7.00013C11.0006 6.7029 11.2246 6.46168 11.5007 6.46168C11.7767 6.46168 12.0007 6.7029 12.0007 7.00013V13.4615C12.0007 13.7588 11.7767 14 11.5007 14Z" fill="#759DAA"/>
<path d="M6.00012 9.69239H4.50003C4.22401 9.69239 4 9.45116 4 9.15394V7.53859C4 7.39536 4.053 7.25859 4.14601 7.15736L10.6464 0.157497C10.8414 -0.052499 11.1584 -0.052499 11.3534 0.157497L12.8535 1.77285C13.0485 1.98285 13.0485 2.32422 12.8535 2.53422L6.35314 9.53409C6.26013 9.63531 6.13312 9.69239 6.00012 9.69239ZM5.00006 8.61549H5.7931L11.7934 2.15407L11.0004 1.30009L5.00006 7.7615V8.61549Z" fill="#759DAA"/>
<path d="M11.0009 4.30787C10.8728 4.30787 10.7448 4.2551 10.6468 4.15065L9.14675 2.53529C8.95174 2.3253 8.95174 1.98392 9.14675 1.77392C9.34176 1.56393 9.65878 1.56393 9.85379 1.77392L11.3539 3.38927C11.5489 3.59927 11.5489 3.94065 11.3539 4.15065C11.2569 4.2551 11.1289 4.30787 11.0009 4.30787Z" fill="#759DAA"/>
</svg>
