<svg width="24" height="23" viewBox="0 0 24 23" fill="none" xmlns="http://www.w3.org/2000/svg">
<circle cx="12" cy="11.5" r="11.5" fill="#455A64"/>
<path d="M10.81 13.535C10.73 13.025 10.78 12.58 10.96 12.2C11.14 11.81 11.365 11.465 11.635 11.165C11.915 10.865 12.16 10.585 12.37 10.325C12.59 10.055 12.7 9.78 12.7 9.5C12.7 9.19 12.605 8.955 12.415 8.795C12.235 8.635 11.995 8.555 11.695 8.555C11.415 8.555 11.165 8.62 10.945 8.75C10.735 8.88 10.53 9.045 10.33 9.245L9.115 8.135C9.465 7.725 9.885 7.395 10.375 7.145C10.865 6.895 11.4 6.77 11.98 6.77C12.78 6.77 13.45 6.975 13.99 7.385C14.54 7.795 14.815 8.445 14.815 9.335C14.815 9.805 14.7 10.205 14.47 10.535C14.25 10.865 13.995 11.175 13.705 11.465C13.425 11.755 13.18 12.06 12.97 12.38C12.77 12.7 12.695 13.085 12.745 13.535H10.81ZM11.77 17.18C11.39 17.18 11.075 17.05 10.825 16.79C10.575 16.52 10.45 16.19 10.45 15.8C10.45 15.4 10.575 15.07 10.825 14.81C11.075 14.54 11.39 14.405 11.77 14.405C12.15 14.405 12.465 14.54 12.715 14.81C12.975 15.07 13.105 15.4 13.105 15.8C13.105 16.19 12.975 16.52 12.715 16.79C12.465 17.05 12.15 17.18 11.77 17.18Z" fill="white"/>
</svg>
