<svg width="80" height="83" viewBox="0 0 80 83" fill="none" xmlns="http://www.w3.org/2000/svg">
<g filter="url(#filter0_d)">
<path d="M0.145996 60.8032V13.1967C0.145996 5.98902 5.88806 0.14856 12.9678 0.14856H57.0292C64.1119 0.14856 69.851 5.99199 69.851 13.1967V60.8002C69.851 68.0079 64.1089 73.8484 57.0292 73.8484H12.9678C5.88806 73.8513 0.145996 68.0109 0.145996 60.8032Z" fill="url(#paint0_linear)"/>
<path opacity="0.4" d="M65.4963 15.8688L19.9688 62.2001L32.6591 73.8543H57.0293C63.1919 73.8543 68.3352 69.4316 69.5707 63.5347C69.5853 63.288 69.5941 63.0413 69.5941 62.7916V19.4384L66.2031 16.3235L65.4963 15.8688Z" fill="#183654"/>
<path d="M48.5651 62.4676L34.2625 47.9126C28.4825 42.0305 28.4825 32.4925 34.2625 26.6105L48.5651 41.1656C54.3451 47.0476 54.3451 56.5856 48.5651 62.4676Z" fill="#E1E1E1"/>
<path d="M34.3209 26.5749C34.1135 22.6485 31.295 19.4682 27.6383 18.7341C25.1178 18.2674 22.4308 18.9867 20.4359 20.9008C19.3874 21.8401 18.4382 22.6158 17.5474 23.2608C13.4117 26.2449 10.3917 26.3638 4.32544 26.4946C7.91496 26.4173 11.7235 27.1396 16.0753 29.4431C18.0643 30.4953 19.4078 32.4867 19.624 34.7545C19.8576 37.1947 20.0212 39.8757 20.103 42.836L20.1439 62.2775C20.3249 62.2775 20.506 62.2745 20.6842 62.2656C28.1115 61.9713 34.1398 55.6315 34.2478 48.0701L34.3209 26.5749Z" fill="#F2F2F2"/>
<path d="M34.2625 47.9126C28.4825 42.0305 28.4825 32.4926 34.2625 26.6105L44.7419 15.9461C50.522 10.064 59.8944 10.064 65.6745 15.9461L34.2625 47.9126Z" fill="white"/>
<path d="M44.7885 37.2601L46.3978 38.9008L34.3208 47.9127L44.7885 37.2601Z" fill="#CCCCCC"/>
</g>
<defs>
<filter id="filter0_d" x="0" y="0" width="80" height="83" filterUnits="userSpaceOnUse" color-interpolation-filters="sRGB">
<feFlood flood-opacity="0" result="BackgroundImageFix"/>
<feColorMatrix in="SourceAlpha" type="matrix" values="0 0 0 0 0 0 0 0 0 0 0 0 0 0 0 0 0 0 127 0"/>
<feOffset dx="6" dy="5"/>
<feGaussianBlur stdDeviation="2"/>
<feColorMatrix type="matrix" values="0 0 0 0 0.34902 0 0 0 0 0.52549 0 0 0 0 0.698039 0 0 0 0.35 0"/>
<feBlend mode="normal" in2="BackgroundImageFix" result="effect1_dropShadow"/>
<feBlend mode="normal" in="SourceGraphic" in2="effect1_dropShadow" result="shape"/>
</filter>
<linearGradient id="paint0_linear" x1="3.22215" y1="4.66233" x2="67.8888" y2="68.2071" gradientUnits="userSpaceOnUse">
<stop stop-color="#53CFD8"/>
<stop offset="0.520833" stop-color="#29839C"/>
<stop offset="1" stop-color="#335980"/>
</linearGradient>
</defs>
</svg>
