<svg width="14" height="14" viewBox="0 0 14 14" fill="none" xmlns="http://www.w3.org/2000/svg">
<path fill-rule="evenodd" clip-rule="evenodd" d="M5.68323 11.3665C2.54447 11.3665 0 8.82199 0 5.68323C0 2.54447 2.54447 0 5.68323 0C8.82199 0 11.3665 2.54447 11.3665 5.68323C11.3665 6.99656 10.921 8.20585 10.1729 9.16822L14 12.9953L12.9953 14L9.16821 10.1729C8.20584 10.921 6.99656 11.3665 5.68323 11.3665ZM9.94558 5.68323C9.94558 8.0373 8.03723 9.94565 5.68316 9.94565C3.32909 9.94565 1.42074 8.0373 1.42074 5.68323C1.42074 3.32916 3.32909 1.42081 5.68316 1.42081C8.03723 1.42081 9.94558 3.32916 9.94558 5.68323Z" fill="#183654"/>
</svg>
