<svg width="21" height="21" viewBox="0 0 21 21" fill="none" xmlns="http://www.w3.org/2000/svg">
<g clip-path="url(#clip0)">
<path d="M20.4363 9.29058C20.3938 9.18382 20.333 9.0867 20.2555 9.00532L17.7563 6.38118C17.4305 6.03993 16.9038 6.03993 16.578 6.38118C16.2522 6.72329 16.2522 7.27717 16.578 7.61842L17.6555 8.74979H13.0004C12.5396 8.74979 12.1671 9.14178 12.1671 9.62478C12.1671 10.1078 12.5396 10.4998 13.0004 10.4998H17.6554L16.5779 11.6311C16.2521 11.9733 16.2521 12.5271 16.5779 12.8684C16.7404 13.0399 16.9538 13.1248 17.1671 13.1248C17.3805 13.1248 17.5938 13.0399 17.7563 12.8684L20.2555 10.2442C20.333 10.1637 20.3938 10.0666 20.4363 9.95898C20.5204 9.74557 20.5204 9.50407 20.4363 9.29058Z" fill="#455A64"/>
<path d="M14.6674 12.25C14.2066 12.25 13.8341 12.642 13.8341 13.125V17.5H10.5007V3.49999C10.5007 3.11411 10.2591 2.77286 9.90655 2.66175L7.01237 1.75001H13.8341V6.12503C13.8341 6.60803 14.2066 7.00001 14.6674 7.00001C15.1282 7.00001 15.5007 6.60803 15.5007 6.12503V0.875027C15.5007 0.391986 15.1282 0 14.6674 0H1.33405C1.30405 0 1.27737 0.013125 1.24823 0.0166113C1.20905 0.021 1.17323 0.0279727 1.13573 0.0376113C1.04823 0.0612363 0.969053 0.097125 0.894912 0.146098C0.876592 0.158361 0.854092 0.159223 0.836592 0.173209C0.829873 0.1785 0.827373 0.188139 0.820693 0.193389C0.729873 0.268611 0.654053 0.360486 0.599053 0.469875C0.587373 0.4935 0.584873 0.518889 0.575732 0.543375C0.549053 0.609861 0.519912 0.674625 0.509912 0.748125C0.505732 0.774375 0.513232 0.798861 0.512412 0.82425C0.511592 0.841764 0.500732 0.857514 0.500732 0.874986V18.375C0.500732 18.7924 0.781553 19.1511 1.17073 19.2325L9.50405 20.9825C9.55823 20.9948 9.61323 21 9.66737 21C9.85819 21 10.0457 20.9309 10.1957 20.8014C10.3882 20.6352 10.5007 20.3875 10.5007 20.125V19.25H14.6674C15.1282 19.25 15.5007 18.858 15.5007 18.375V13.125C15.5007 12.642 15.1282 12.25 14.6674 12.25Z" fill="#455A64"/>
</g>
<defs>
<clipPath id="clip0">
<rect width="20" height="21" fill="white" transform="translate(0.5)"/>
</clipPath>
</defs>
</svg>
