<svg width="19" height="15" viewBox="0 0 19 15" fill="none" xmlns="http://www.w3.org/2000/svg">
<path d="M17.6397 6.27946H1.35405C0.605921 6.27946 0 6.8441 0 7.52851C0 8.21863 0.612104 8.77756 1.35405 8.77756H17.6397C18.3878 8.77756 18.9938 8.21293 18.9938 7.52851C18.9999 6.8441 18.3878 6.27946 17.6397 6.27946Z" fill="#455A64"/>
<path d="M1.35409 2.4981H17.646C18.3941 2.4981 19 1.93346 19 1.24905C19 0.558935 18.3879 0 17.646 0H1.35409C0.605968 0 4.64319e-05 0.564638 4.64319e-05 1.24905C-0.00613644 1.93346 0.605968 2.4981 1.35409 2.4981Z" fill="#455A64"/>
<path d="M17.6397 12.5019H1.35405C0.605921 12.5019 0 13.0666 0 13.751C0 14.4354 0.612104 15 1.35405 15H17.6459C18.394 15 18.9999 14.4354 18.9999 13.751C18.9999 13.0666 18.3878 12.5019 17.6397 12.5019Z" fill="#455A64"/>
</svg>
