<svg width="228" height="229" viewBox="0 0 228 229" fill="none" xmlns="http://www.w3.org/2000/svg">
<g filter="url(#filter0_d)">
<circle cx="116.5" cy="73.5" r="73.5" fill="white"/>
</g>
<path d="M150.782 50.0025C149.468 50.0418 148.22 50.6436 147.3 51.6807L109.911 92.9724L91.1686 76.9591C90.6427 76.5092 90.0417 76.178 89.3999 75.9846C88.7581 75.7911 88.088 75.7392 87.428 75.8318C86.7681 75.9243 86.131 76.1594 85.5533 76.5238C84.9757 76.8883 84.4686 77.3748 84.0612 77.9556C83.6538 78.5365 83.3539 79.2002 83.1787 79.909C83.0036 80.6178 82.9566 81.3578 83.0403 82.0866C83.1241 82.8155 83.3371 83.519 83.6671 84.157C83.997 84.7949 84.4376 85.3549 84.9635 85.8049L107.251 104.825C108.225 105.659 109.439 106.073 110.669 105.989C111.899 105.906 113.058 105.33 113.931 104.37L154.455 59.6174C155.19 58.8328 155.693 57.8211 155.897 56.715C156.102 55.609 155.999 54.4604 155.602 53.4202C155.204 52.3801 154.532 51.497 153.671 50.887C152.811 50.2771 151.804 49.9687 150.782 50.0025Z" fill="black" fill-opacity="0.71"/>
<path d="M35.6553 191.399H41.5391L42.3447 216.009H34.8496L35.6553 191.399ZM42.54 183.855C42.54 184.946 42.1657 185.841 41.417 186.541C40.6683 187.241 39.7243 187.591 38.585 187.591C37.4456 187.591 36.5016 187.241 35.7529 186.541C35.0042 185.841 34.6299 184.946 34.6299 183.855C34.6299 182.765 34.988 181.87 35.7041 181.17C36.4365 180.47 37.3968 180.12 38.585 180.12C39.7731 180.12 40.7253 180.47 41.4414 181.17C42.1738 181.87 42.54 182.765 42.54 183.855ZM56.1143 201.116H71.666V207H48.79V171.453H56.1143V201.116ZM83.6777 207H76.3535V171.453H83.6777V207ZM108.922 197.674C108.922 196.29 108.434 195.232 107.457 194.5C106.48 193.751 104.723 192.97 102.184 192.156C99.6445 191.326 97.6344 190.512 96.1533 189.715C92.1169 187.534 90.0986 184.596 90.0986 180.901C90.0986 178.981 90.6357 177.272 91.71 175.774C92.8005 174.261 94.3548 173.081 96.373 172.234C98.4076 171.388 100.686 170.965 103.209 170.965C105.748 170.965 108.01 171.429 109.996 172.356C111.982 173.268 113.52 174.562 114.61 176.238C115.717 177.915 116.271 179.819 116.271 181.951H108.946C108.946 180.324 108.434 179.062 107.408 178.167C106.383 177.256 104.942 176.8 103.087 176.8C101.297 176.8 99.9049 177.182 98.9121 177.947C97.9193 178.696 97.4229 179.689 97.4229 180.926C97.4229 182.081 98.0007 183.05 99.1562 183.831C100.328 184.612 102.045 185.345 104.308 186.028C108.474 187.282 111.51 188.836 113.414 190.691C115.318 192.547 116.271 194.858 116.271 197.625C116.271 200.701 115.107 203.118 112.779 204.876C110.452 206.618 107.319 207.488 103.38 207.488C100.646 207.488 98.1553 206.992 95.9092 205.999C93.6631 204.99 91.946 203.615 90.7578 201.873C89.5859 200.132 89 198.113 89 195.818H96.3486C96.3486 199.741 98.6924 201.702 103.38 201.702C105.121 201.702 106.48 201.352 107.457 200.652C108.434 199.936 108.922 198.943 108.922 197.674ZM148.009 177.386H137.12V207H129.796V177.386H119.054V171.453H148.009V177.386ZM180.724 190.032C180.724 193.532 180.105 196.6 178.868 199.236C177.631 201.873 175.857 203.908 173.546 205.34C171.251 206.772 168.614 207.488 165.636 207.488C162.69 207.488 160.061 206.78 157.75 205.364C155.439 203.948 153.648 201.93 152.379 199.31C151.109 196.673 150.466 193.646 150.45 190.228V188.47C150.45 184.97 151.077 181.894 152.33 179.241C153.6 176.572 155.382 174.529 157.677 173.113C159.988 171.681 162.625 170.965 165.587 170.965C168.549 170.965 171.178 171.681 173.473 173.113C175.784 174.529 177.566 176.572 178.819 179.241C180.089 181.894 180.724 184.962 180.724 188.445V190.032ZM173.302 188.421C173.302 184.694 172.634 181.862 171.3 179.925C169.965 177.988 168.061 177.02 165.587 177.02C163.129 177.02 161.233 177.98 159.898 179.9C158.564 181.805 157.888 184.604 157.872 188.299V190.032C157.872 193.662 158.539 196.478 159.874 198.479C161.209 200.481 163.129 201.482 165.636 201.482C168.093 201.482 169.981 200.522 171.3 198.602C172.618 196.665 173.285 193.849 173.302 190.154V188.421ZM192.76 196.087H186.9L186.07 171.453H193.59L192.76 196.087ZM189.83 199.944C191.018 199.944 191.97 200.294 192.687 200.994C193.419 201.694 193.785 202.589 193.785 203.68C193.785 204.754 193.419 205.641 192.687 206.341C191.97 207.041 191.018 207.391 189.83 207.391C188.658 207.391 187.706 207.041 186.974 206.341C186.257 205.641 185.899 204.754 185.899 203.68C185.899 202.605 186.257 201.718 186.974 201.019C187.706 200.302 188.658 199.944 189.83 199.944Z" fill="white"/>
<defs>
<filter id="filter0_d" x="39" y="0" width="155" height="161" filterUnits="userSpaceOnUse" color-interpolation-filters="sRGB">
<feFlood flood-opacity="0" result="BackgroundImageFix"/>
<feColorMatrix in="SourceAlpha" type="matrix" values="0 0 0 0 0 0 0 0 0 0 0 0 0 0 0 0 0 0 127 0"/>
<feOffset dy="10"/>
<feGaussianBlur stdDeviation="2"/>
<feColorMatrix type="matrix" values="0 0 0 0 0 0 0 0 0 0 0 0 0 0 0 0 0 0 0.25 0"/>
<feBlend mode="normal" in2="BackgroundImageFix" result="effect1_dropShadow"/>
<feBlend mode="normal" in="SourceGraphic" in2="effect1_dropShadow" result="shape"/>
</filter>
</defs>
</svg>
