<svg width="29" height="35" viewBox="0 0 29 35" fill="none" xmlns="http://www.w3.org/2000/svg">
<g clip-path="url(#clip0)">
<path d="M3.55184 1.55566H2.05554V24.4723V26.0001H24.5V24.4723H3.55184V1.55566Z" fill="#455A64"/>
<path d="M10.1498 14.2651L3.94984 21.8704C3.65889 22.2273 3.5 22.6737 3.5 23.1341V24C3.5 25.1046 4.39543 26 5.5 26H24.5C25.6046 26 26.5 25.1046 26.5 24V5.3504C26.5 4.83533 26.2603 4.34959 25.8516 4.03621C25.1113 3.46869 24.0486 3.62423 23.5021 4.3801L16.8387 13.5957C16.3372 14.2893 15.4499 14.5869 14.6316 14.3359L12.2864 13.6167C11.5086 13.3782 10.6639 13.6346 10.1498 14.2651Z" fill="#455A64"/>
</g>
<defs>
<clipPath id="clip0">
<rect width="28" height="35" fill="white" transform="translate(0.5)"/>
</clipPath>
</defs>
</svg>
