<svg width="15" height="14" viewBox="0 0 15 14" fill="none" xmlns="http://www.w3.org/2000/svg">
<path d="M14.4512 5.98116L12.9653 5.74981C12.8573 5.33772 12.6998 4.94381 12.4948 4.57642L13.446 3.47564C13.6483 3.243 13.6391 2.90828 13.4258 2.68375L12.8348 2.063C12.6206 1.83871 12.2654 1.79128 11.9944 1.95105L10.7237 2.69659C10.1648 2.33214 9.53171 2.063 8.84876 1.90684L8.60017 0.512578C8.548 0.217351 8.27428 0.000732422 7.95296 0.000732422H7.06239C6.74173 0.000732422 6.46708 0.217351 6.41607 0.512578L6.16612 1.90727C5.60147 2.0363 5.07207 2.24458 4.58893 2.51888L3.38046 1.71393C3.12001 1.54027 2.76228 1.56742 2.535 1.7791L1.90583 2.36674C1.67903 2.57888 1.64994 2.91276 1.83649 3.15585L2.70095 4.28591C2.40981 4.73343 2.18895 5.22473 2.05072 5.74704L0.548372 5.98118C0.232544 6.02986 0 6.28535 0 6.58527V7.41581C0 7.71569 0.232544 7.97121 0.548372 8.0199L2.05072 8.25403C2.16424 8.68384 2.32904 9.09439 2.54807 9.47505L1.60119 10.5696C1.39956 10.802 1.40804 11.137 1.62133 11.3613L2.21184 11.9821C2.42606 12.2068 2.78148 12.2533 3.05248 12.094L4.34151 11.3382C4.88693 11.6864 5.50398 11.9423 6.16612 12.094L6.41607 13.4885C6.4671 13.7837 6.74173 14.0003 7.06239 14.0003H7.95296C8.27428 14.0003 8.548 13.7837 8.60017 13.4885L8.84918 12.094C9.40678 11.9667 9.92947 11.762 10.4083 11.4924L11.6671 12.3316C11.9271 12.5059 12.2851 12.4785 12.5122 12.2662L13.1416 11.6787C13.3681 11.4672 13.3988 11.1335 13.2107 10.89L12.3144 9.71724C12.6064 9.26822 12.8284 8.77605 12.9658 8.25141L14.4517 8.01985C14.7684 7.97117 15 7.71566 15 7.41576V6.58522C14.9995 6.28535 14.7679 6.02986 14.4512 5.98116ZM7.52356 9.62546C5.97064 9.62546 4.71114 8.44972 4.71114 7.00054C4.71114 5.55114 5.97064 4.37561 7.52356 4.37561C9.07622 4.37561 10.3359 5.55114 10.3359 7.00054C10.3359 8.44972 9.07622 9.62546 7.52356 9.62546Z" fill="#455A64"/>
</svg>
