<svg width="81" height="97" viewBox="0 0 81 97" fill="none" xmlns="http://www.w3.org/2000/svg">
<path d="M39.114 19.5155H39.0432V26.7355H39.114C39.8046 26.7355 40.3616 27.2931 40.3616 27.9845C40.3616 28.6759 39.8046 29.2335 39.114 29.2335H9.15472C8.46413 29.2335 7.90715 28.6759 7.90715 27.9845C7.90715 27.2931 8.46413 26.7355 9.15472 26.7355H9.27062V19.5155H9.15472C4.10811 19.5155 0 23.6267 0 28.6807V87.8347C0 92.8871 4.1065 96.9999 9.15472 96.9999H39.114C44.1606 96.9999 48.2687 92.8887 48.2687 87.8347V28.6807C48.2687 23.6267 44.1622 19.5155 39.114 19.5155ZM15.2589 89.2674C15.2042 90.7421 14.2979 91.6703 12.8459 91.7171C12.0137 91.7461 11.1814 91.7429 10.3492 91.7219C8.90037 91.6881 7.92808 90.8049 7.81861 89.3561C7.75583 88.46 7.75583 87.5479 7.82344 86.6518C7.9313 85.261 8.8553 84.3649 10.2574 84.2682C11.0526 84.2134 11.8559 84.2312 12.6495 84.2602C14.3269 84.323 15.238 85.2852 15.2622 86.9757C15.267 87.3255 15.2622 87.672 15.2622 88.0168C15.2589 88.4342 15.2718 88.8549 15.2589 89.2674ZM15.2589 77.3319C15.2042 78.8017 14.2979 79.7316 12.8459 79.7767C12.0137 79.8057 11.1814 79.8025 10.3492 79.7815C8.90037 79.7477 7.92808 78.8645 7.81861 77.4157C7.75583 76.5196 7.75583 75.6075 7.82344 74.7114C7.9313 73.3206 8.8553 72.4294 10.2574 72.3278C11.0526 72.273 11.8559 72.2908 12.6495 72.3198C14.3269 72.3826 15.238 73.3448 15.2622 75.0353C15.267 75.3851 15.2622 75.7316 15.2622 76.0764C15.2589 76.4987 15.2718 76.9161 15.2589 77.3319ZM15.2589 65.3931C15.2042 66.8629 14.2979 67.7928 12.8459 67.8379C12.0137 67.8669 11.1814 67.8637 10.3492 67.8427C8.90037 67.8089 7.92808 66.9257 7.81861 65.4769C7.75583 64.5809 7.75583 63.6687 7.82344 62.7726C7.9313 61.3818 8.8553 60.4906 10.2574 60.3891C11.0526 60.3343 11.8559 60.352 12.6495 60.381C14.3269 60.4439 15.238 61.406 15.2622 63.1014C15.267 63.4479 15.2622 63.7928 15.2622 64.1425C15.2589 64.5599 15.2718 64.9757 15.2589 65.3931ZM27.4513 88.987C27.4303 90.8371 26.553 91.7026 24.6889 91.7235C24.3766 91.7284 24.0643 91.7235 23.752 91.7235C23.3689 91.7235 22.9906 91.7316 22.6075 91.7235C21.0476 91.6865 20.077 90.7775 19.9981 89.2207C19.953 88.3875 19.9482 87.5495 20.0029 86.7211C20.0947 85.3126 20.9897 84.3843 22.3789 84.2795C23.2739 84.2086 24.1851 84.2086 25.0801 84.2747C26.5289 84.3794 27.411 85.3528 27.448 86.7985C27.4641 87.5301 27.4593 88.2586 27.4513 88.987ZM27.4513 77.0482C27.4303 78.9016 26.553 79.7686 24.6889 79.7847C24.3766 79.7896 24.0643 79.7847 23.752 79.7847C23.3689 79.7847 22.9906 79.7928 22.6075 79.7847C21.0476 79.7477 20.077 78.8387 19.9981 77.2819C19.953 76.4487 19.9482 75.6107 20.0029 74.7823C20.0947 73.3738 20.9897 72.4455 22.3789 72.3407C23.2739 72.2698 24.1851 72.2698 25.0801 72.3359C26.5289 72.4407 27.411 73.4141 27.448 74.8597C27.4641 75.5913 27.4593 76.3198 27.4513 77.0482ZM27.4513 65.1143C27.4303 66.9644 26.553 67.8299 24.6889 67.8476C24.3766 67.8524 24.0643 67.8476 23.752 67.8476C23.3689 67.8476 22.9906 67.8556 22.6075 67.8476C21.0476 67.8137 20.077 66.9016 19.9981 65.3448C19.953 64.5116 19.9482 63.6735 20.0029 62.8452C20.0947 61.4366 20.9897 60.5116 22.3789 60.4036C23.2739 60.3327 24.1851 60.3327 25.0801 60.3987C26.5289 60.5035 27.411 61.4769 27.448 62.9225C27.4641 63.651 27.4593 64.3842 27.4513 65.1143ZM39.1977 88.9C39.1848 90.8371 38.3284 91.7074 36.4225 91.7251C36.1102 91.73 35.7979 91.7251 35.4856 91.7251C35.1025 91.7251 34.7242 91.7332 34.341 91.7251C32.8343 91.6881 31.8524 90.8049 31.7526 89.3093C31.6946 88.4471 31.6946 87.572 31.7526 86.705C31.8524 85.2642 32.7892 84.3553 34.2412 84.2682C35.0365 84.2183 35.8397 84.2263 36.6334 84.2602C38.2479 84.3311 39.1671 85.3013 39.1961 86.9226C39.2106 87.5801 39.2009 88.2376 39.1977 88.9ZM39.1977 76.9612C39.1848 78.8984 38.3284 79.7686 36.4225 79.7864C36.1102 79.7912 35.7979 79.7864 35.4856 79.7864C35.1025 79.7864 34.7242 79.7944 34.341 79.7864C32.8343 79.7493 31.8524 78.8661 31.7526 77.3706C31.6946 76.5084 31.6946 75.6333 31.7526 74.7662C31.8524 73.3254 32.7892 72.4165 34.2412 72.3295C35.0365 72.2795 35.8397 72.2876 36.6334 72.3214C38.2479 72.3923 39.1671 73.3625 39.1961 74.9838C39.2106 75.6413 39.2009 76.2988 39.1977 76.9612ZM39.1977 65.0224C39.1848 66.9596 38.3284 67.8299 36.4225 67.8476C36.1102 67.8524 35.7979 67.8476 35.4856 67.8476C35.1025 67.8476 34.7242 67.8556 34.341 67.8476C32.8343 67.8105 31.8524 66.9274 31.7526 65.4318C31.6946 64.5696 31.6946 63.6945 31.7526 62.8323C31.8524 61.3867 32.7892 60.4793 34.2412 60.3907C35.0365 60.3407 35.8397 60.3488 36.6334 60.3826C38.2479 60.4535 39.1671 61.4237 39.1961 63.045C39.2106 63.7009 39.2009 64.3601 39.1977 65.0224ZM42.9967 49.9249C42.9967 52.6791 40.7576 54.9241 38.0033 54.9241H10.2671C7.51276 54.9241 5.27358 52.6791 5.27358 49.9249V39.0933C5.27358 36.3358 7.51276 34.0941 10.2671 34.0941H38.0033C40.7576 34.0941 42.9967 36.3358 42.9967 39.0933V49.9249Z" fill="#455A64"/>
<path d="M34.0516 26.6534H36.1105L36.0687 26.0812C36.0622 26.0055 36.0542 21.7654 36.0542 21.6896L36.0526 12.0973C36.0526 7.84753 36.0526 7.28831 36.0574 1.92488C36.0574 1.5945 35.9898 1.18515 35.4586 0.951468C34.8871 0.700057 34.3269 0.40191 33.8536 0.144053C33.5011 -0.0493399 33.1647 -0.0493401 32.788 0.152111C32.5546 0.276204 32.3179 0.393852 32.0813 0.511499C31.7819 0.659767 31.4825 0.808035 31.1895 0.970807C31.0945 1.02399 31.0462 1.02399 31.0317 1.02399C30.9834 1.02399 30.9223 1.00304 30.8418 0.959526C30.1963 0.604972 29.6908 0.353562 29.203 0.144053C28.9246 0.024794 28.5302 0.0231823 28.2565 0.142441C27.9394 0.279428 27.6319 0.435753 27.3341 0.587244C27.0669 0.722619 26.7997 0.857995 26.526 0.980477C26.5083 0.988535 26.3473 0.988535 26.3216 0.975642C25.8016 0.745182 25.2591 0.476044 24.7118 0.174673C24.3078 -0.0461166 23.9488 -0.0477283 23.5624 0.165004C22.9717 0.488937 22.4453 0.75324 21.9543 0.969195C21.9108 0.988534 21.7386 0.985311 21.7096 0.972419C21.4005 0.835432 21.0979 0.682329 20.7953 0.530838C20.5152 0.389017 20.2351 0.248807 19.9501 0.118267C19.794 0.0473564 19.633 0.032852 19.5268 0.032852C19.4205 0.032852 19.2628 0.0473563 19.1082 0.116655C18.7992 0.256865 18.4949 0.408356 18.1923 0.559847C17.8977 0.706503 17.6047 0.854771 17.3069 0.988535C17.2924 0.993369 17.1588 0.993369 17.1459 0.988535C16.8449 0.85316 16.5503 0.704892 16.2541 0.556624C15.9531 0.405133 15.6521 0.255254 15.3446 0.116655C15.1868 0.0457447 15.0243 0.0296286 14.9164 0.0296286C14.8118 0.0296286 14.6556 0.0441332 14.5059 0.110209C14.2146 0.240749 13.9296 0.384182 13.6447 0.527615C13.3839 0.659767 13.1231 0.790307 12.8575 0.911177C12.3907 1.1223 12.1814 1.44623 12.183 1.96517C12.1927 9.30281 12.1927 11.4978 12.1911 17.9201V20.6598C12.1911 20.9789 12.1846 21.298 12.1782 21.6171L12.1621 26.6518H14.1985L14.192 7.34793C14.192 4.92891 14.192 6.17952 14.1968 3.02399V2.61626C14.1968 2.55985 14.2017 2.50989 14.2081 2.47444C14.2419 2.4551 14.2757 2.43576 14.3079 2.41642C14.5574 2.27137 14.7925 2.13278 14.9889 2.13278C15.0645 2.13278 15.1836 2.1505 15.3527 2.30522C15.4138 2.36162 15.4782 2.39063 15.5217 2.41158C15.6843 2.49216 15.8291 2.56469 15.9579 2.63076C16.5407 2.92569 16.861 3.08846 17.2361 3.08846C17.6289 3.08846 17.954 2.9144 18.6028 2.56952L18.944 2.38902C19.3964 2.1505 19.6588 2.1505 20.1127 2.38741C20.2737 2.47121 20.4154 2.54696 20.5425 2.61626C21.1236 2.9273 21.4424 3.09813 21.8239 3.09813C22.2151 3.09813 22.5419 2.92246 23.1938 2.57436L23.5351 2.39224C23.9987 2.14728 24.274 2.14889 24.744 2.4003L25.0837 2.58403C25.697 2.91602 26.0334 3.09974 26.4278 3.09974C26.8254 3.09974 27.1731 2.90957 27.8025 2.5663L28.0955 2.40675C28.5801 2.14567 28.8795 2.14728 29.3753 2.41481L29.6361 2.55663C30.2768 2.90635 30.6293 3.09813 31.035 3.09813C31.4422 3.09813 31.7964 2.90312 32.4354 2.55018L32.6914 2.40997C33.2307 2.11505 33.5494 2.1086 33.9277 2.40997C33.9856 2.45671 34.0372 2.53084 34.042 2.53245C34.0516 9.90555 34.0516 12.352 34.05 18.6808L34.0516 26.6534Z" fill="#455A64"/>
<path d="M65.5508 77.1355H77.8011C79.897 77.1355 80.9997 76.0444 80.9997 73.9525V39.5335C80.9997 37.4545 79.8905 36.357 77.8011 36.3506H65.5508V77.1355ZM76.8577 43.2708C76.8577 44.3167 76.4054 45.2611 75.6923 45.9106C76.4054 46.5681 76.8577 47.5109 76.8577 48.5569C76.8577 50.5343 75.2528 52.1411 73.2712 52.1411C71.296 52.1411 69.6911 50.5343 69.6911 48.5569C69.6911 47.5109 70.1434 46.5665 70.8566 45.9106C70.1434 45.2595 69.6911 44.3167 69.6911 43.2708C69.6911 41.2869 71.296 39.6866 73.2712 39.6866C75.2528 39.6866 76.8577 41.2885 76.8577 43.2708Z" fill="#455A64"/>
<path d="M58.6164 77.1336C57.4799 77.1336 56.419 77.1659 55.3598 77.1256C53.7307 77.0659 52.6345 75.8508 52.6329 74.1183C52.6264 66.4132 52.6297 58.7065 52.6297 51.0014C52.6297 47.1481 52.6248 43.2963 52.6313 39.443C52.6345 37.4623 53.7613 36.3552 55.7574 36.3487C56.6847 36.3455 57.6135 36.3487 58.6147 36.3487C58.6164 49.9394 58.6164 63.493 58.6164 77.1336Z" fill="#455A64"/>
<path d="M9.43477 23.6477L9.42969 23.8363V23.6477H9.43477Z" fill="#455A64"/>
</svg>
