<svg width="27" height="7" viewBox="0 0 27 7" fill="none" xmlns="http://www.w3.org/2000/svg">
<path d="M23.0115 5.88082C21.7036 5.88082 20.6434 4.81723 20.6434 3.50523C20.6434 2.19323 21.7036 1.12964 23.0115 1.12964C24.3194 1.12964 25.3796 2.19323 25.3796 3.50523C25.3796 4.81723 24.3194 5.88082 23.0115 5.88082Z" fill="#16CCCF"/>
<path d="M21.774 3.50517C21.774 3.55595 21.7796 3.60674 21.7796 3.66316C21.7796 3.89452 21.7796 3.58417 21.7628 3.58981C21.7459 3.59545 21.8359 3.89452 21.8415 3.91709C21.909 4.17665 21.7403 3.75345 21.864 3.99044C21.9146 4.08637 21.9709 4.1823 22.0328 4.27258C22.1565 4.47572 21.9034 4.14844 22.0103 4.24437C22.044 4.27822 22.0721 4.31772 22.1059 4.35158C22.1396 4.38543 22.1734 4.41929 22.2128 4.45315C22.2634 4.50393 22.2971 4.59421 22.2409 4.48136C22.1846 4.37415 22.2015 4.45315 22.2746 4.49829C22.314 4.5265 22.359 4.54907 22.3984 4.57729C22.449 4.6055 22.5053 4.63371 22.5615 4.66193C22.7359 4.75785 22.404 4.62243 22.5334 4.645C22.629 4.66193 22.7246 4.70707 22.8203 4.724C23.0959 4.78043 22.6121 4.71835 22.899 4.73528C22.9946 4.74092 23.1578 4.70143 23.2478 4.72964C23.2196 4.71836 22.9834 4.78607 23.1746 4.73528C23.2365 4.71835 23.2984 4.70707 23.3546 4.69014C23.3996 4.67886 23.4503 4.65629 23.4953 4.645C23.6359 4.61679 23.3096 4.75221 23.4334 4.67321C23.5234 4.61679 23.6303 4.57164 23.7203 4.51522C23.7371 4.50393 23.844 4.43622 23.8384 4.43057C23.8328 4.41929 23.6246 4.62243 23.7821 4.47008C23.8046 4.4475 24.0465 4.22744 24.0353 4.21051C24.0296 4.19922 23.8778 4.4475 23.9903 4.26694C24.0184 4.22744 24.0465 4.18794 24.069 4.1428C24.0803 4.12022 24.2209 3.90016 24.204 3.88323C24.1928 3.87195 24.114 4.15972 24.1703 3.9453C24.1815 3.89452 24.1984 3.84937 24.2153 3.80423C24.2265 3.75345 24.2378 3.70831 24.249 3.65752C24.3109 3.41488 24.249 3.9058 24.249 3.65188C24.249 3.54467 24.249 3.4431 24.249 3.34153C24.2434 3.15532 24.2434 3.42053 24.2659 3.41488C24.2715 3.41488 24.2321 3.25689 24.2378 3.26817C24.2321 3.23996 24.1703 2.98039 24.1534 2.98039C24.1365 2.98039 24.2659 3.20046 24.1815 3.04811C24.1478 2.98039 24.114 2.91832 24.0746 2.85625C24.0521 2.81675 24.0184 2.77726 23.9959 2.73211C23.9059 2.57976 24.024 2.80547 24.0409 2.78854C24.0521 2.77726 23.8553 2.59105 23.844 2.57412C23.8496 2.57976 23.7371 2.47255 23.7371 2.47819C23.7203 2.48948 23.9396 2.61362 23.7934 2.52333C23.6865 2.46126 23.5853 2.39919 23.4784 2.33712C23.2871 2.23555 23.5403 2.37098 23.5459 2.36534C23.5459 2.35969 23.4221 2.32584 23.4053 2.32019C23.3771 2.31455 23.1184 2.2412 23.1128 2.25248C23.1015 2.28634 23.3715 2.26377 23.1859 2.26941C23.1184 2.26941 23.0565 2.26377 22.989 2.26377C22.9384 2.26377 22.8878 2.26941 22.8315 2.26941C22.6909 2.26941 23.0734 2.21863 22.8653 2.26377C22.8315 2.26941 22.4996 2.34277 22.5053 2.36534C22.5053 2.37662 22.764 2.23555 22.5728 2.33712C22.5053 2.37098 22.4434 2.40483 22.3815 2.44433C22.3421 2.46691 22.3028 2.50076 22.2578 2.52333C22.089 2.6249 22.3703 2.40483 22.2859 2.50076C22.2128 2.57976 22.1284 2.65312 22.0553 2.73211C21.8865 2.9014 22.1453 2.57412 22.0721 2.7039C22.044 2.75468 22.0046 2.80547 21.9709 2.85625C21.9484 2.89575 21.9203 2.94089 21.8978 2.98604C21.8809 3.01989 21.864 3.05375 21.8471 3.08761C21.8134 3.1666 21.8246 3.13275 21.8921 2.99168C21.8696 2.98604 21.7965 3.33024 21.7909 3.35281C21.7459 3.52774 21.819 3.27382 21.7965 3.27946C21.7684 3.27946 21.774 3.49388 21.774 3.50517C21.7628 4.09765 21.2621 4.66193 20.649 4.63371C20.0471 4.6055 19.5127 4.13715 19.524 3.50517C19.5465 1.99856 20.4859 0.695088 21.8978 0.187242C23.2028 -0.281105 24.7721 0.153386 25.6553 1.21986C26.6059 2.35969 26.7915 4.00173 26.0209 5.29391C25.239 6.59738 23.7315 7.21244 22.2578 6.92466C20.6602 6.60867 19.5465 5.09642 19.524 3.50517C19.5127 2.91268 20.0471 2.34841 20.649 2.37662C21.2621 2.40484 21.7628 2.87318 21.774 3.50517Z" fill="#16CCCF"/>
<path d="M3.99319 5.88643C2.68531 5.88643 1.62506 4.82285 1.62506 3.51084C1.62506 2.19884 2.68531 1.13525 3.99319 1.13525C5.30108 1.13525 6.36133 2.19884 6.36133 3.51084C6.36133 4.82285 5.30108 5.88643 3.99319 5.88643Z" fill="#16CCCF"/>
<path d="M2.75007 3.51078C2.75007 3.56157 2.7557 3.61235 2.7557 3.66878C2.7557 3.90013 2.7557 3.58978 2.73882 3.59542C2.72195 3.60107 2.81195 3.90013 2.81757 3.9227C2.88507 4.18227 2.71632 3.75906 2.84007 3.99606C2.8907 4.09199 2.94695 4.18791 3.00882 4.2782C3.13258 4.48133 2.87945 4.15406 2.98632 4.24998C3.02007 4.28384 3.0482 4.32334 3.08195 4.35719C3.1157 4.39105 3.14945 4.42491 3.18883 4.45876C3.23945 4.50955 3.2732 4.59983 3.21695 4.48698C3.1607 4.37976 3.17757 4.45876 3.2507 4.5039C3.29007 4.53212 3.33508 4.55469 3.37445 4.5829C3.42508 4.61112 3.48133 4.63933 3.53758 4.66754C3.71195 4.76347 3.38008 4.62804 3.50945 4.65061C3.60508 4.66754 3.7007 4.71269 3.79633 4.72961C4.07195 4.78604 3.5882 4.72397 3.87508 4.7409C3.9707 4.74654 4.13383 4.70704 4.22383 4.73526C4.1957 4.72397 3.95945 4.79168 4.1507 4.7409C4.21258 4.72397 4.27445 4.71269 4.3307 4.69576C4.3757 4.68447 4.42633 4.6619 4.47133 4.65061C4.61195 4.6224 4.2857 4.75783 4.40945 4.67883C4.49945 4.6224 4.60633 4.57726 4.69633 4.52083C4.71321 4.50955 4.82008 4.44183 4.81446 4.43619C4.80883 4.42491 4.60071 4.62805 4.75821 4.47569C4.78071 4.45312 5.02258 4.23305 5.01133 4.21613C5.00571 4.20484 4.85383 4.45312 4.96633 4.27255C4.99446 4.23305 5.02258 4.19355 5.04508 4.14841C5.05633 4.12584 5.19696 3.90577 5.18008 3.88885C5.16883 3.87756 5.09008 4.16534 5.14633 3.95092C5.15758 3.90013 5.17446 3.85499 5.19133 3.80985C5.20258 3.75906 5.21383 3.71392 5.22508 3.66314C5.28696 3.4205 5.22508 3.91142 5.22508 3.65749C5.22508 3.55028 5.22508 3.44871 5.22508 3.34714C5.21946 3.16093 5.21946 3.42614 5.24196 3.4205C5.24758 3.4205 5.20821 3.2625 5.21383 3.27379C5.20821 3.24557 5.14633 2.98601 5.12946 2.98601C5.11258 2.98601 5.24196 3.20608 5.15758 3.05372C5.12383 2.98601 5.09008 2.92394 5.05071 2.86187C5.02821 2.82237 4.99446 2.78287 4.97196 2.73773C4.88196 2.58538 5.00008 2.81108 5.01696 2.79416C5.02821 2.78287 4.83133 2.59666 4.82008 2.57973C4.82571 2.58538 4.7132 2.47816 4.7132 2.48381C4.69633 2.49509 4.91571 2.61923 4.76945 2.52895C4.66258 2.46688 4.56133 2.40481 4.45445 2.34274C4.2632 2.24117 4.51633 2.37659 4.52195 2.37095C4.52195 2.36531 4.3982 2.33145 4.38133 2.32581C4.3532 2.32017 4.09445 2.24681 4.08883 2.2581C4.07758 2.29195 4.34758 2.26938 4.16195 2.27502C4.09445 2.27502 4.03258 2.26938 3.96508 2.26938C3.91445 2.26938 3.86383 2.27502 3.80758 2.27502C3.66695 2.27502 4.04945 2.22424 3.84133 2.26938C3.80758 2.27503 3.4757 2.34838 3.48133 2.37095C3.48133 2.38224 3.74008 2.24117 3.54883 2.34274C3.48133 2.37659 3.41945 2.41045 3.35758 2.44995C3.3182 2.47252 3.27883 2.50638 3.23383 2.52895C3.06507 2.63052 3.34633 2.41045 3.26195 2.50638C3.18883 2.58538 3.10445 2.65873 3.03132 2.73773C2.86257 2.90701 3.12133 2.57973 3.0482 2.70952C3.02008 2.7603 2.9807 2.81108 2.94695 2.86187C2.92445 2.90137 2.89632 2.94651 2.87382 2.99165C2.85695 3.02551 2.84007 3.05936 2.8232 3.09322C2.78945 3.17222 2.8007 3.13836 2.8682 2.99729C2.8457 2.99165 2.77257 3.33586 2.76695 3.35843C2.72195 3.53335 2.79507 3.27943 2.77257 3.28507C2.75007 3.27943 2.75007 3.49386 2.75007 3.51078C2.73882 4.10327 2.2382 4.66754 1.62507 4.63933C1.02319 4.61112 0.488816 4.14277 0.500066 3.51078C0.522566 2.00417 1.46194 0.700703 2.87382 0.192857C4.17883 -0.27549 5.74821 0.159001 6.63134 1.22548C7.58196 2.36531 7.76759 4.00734 6.99696 5.29953C6.21508 6.603 4.70758 7.21806 3.23383 6.93028C1.63632 6.61429 0.522566 5.10203 0.500066 3.51078C0.488816 2.9183 1.02319 2.35402 1.62507 2.38224C2.24382 2.41045 2.74445 2.8788 2.75007 3.51078Z" fill="#16CCCF"/>
<path d="M13.5052 5.88082C12.1973 5.88082 11.137 4.81723 11.137 3.50523C11.137 2.19323 12.1973 1.12964 13.5052 1.12964C14.813 1.12964 15.8733 2.19323 15.8733 3.50523C15.8733 4.81723 14.813 5.88082 13.5052 5.88082Z" fill="#16CCCF"/>
<path d="M12.262 3.50517C12.262 3.55595 12.2677 3.60674 12.2677 3.66316C12.2677 3.89452 12.2677 3.58417 12.2508 3.58981C12.2339 3.59545 12.3239 3.89452 12.3295 3.91709C12.397 4.17665 12.2283 3.75345 12.352 3.99044C12.4027 4.08637 12.4589 4.1823 12.5208 4.27258C12.6445 4.47572 12.3914 4.14844 12.4983 4.24437C12.532 4.27822 12.5602 4.31772 12.5939 4.35158C12.6277 4.38543 12.6614 4.41929 12.7008 4.45315C12.7514 4.50393 12.7852 4.59421 12.7289 4.48136C12.6727 4.37415 12.6895 4.45315 12.7627 4.49829C12.802 4.5265 12.847 4.54907 12.8864 4.57729C12.937 4.6055 12.9933 4.63371 13.0495 4.66193C13.2239 4.75785 12.892 4.62243 13.0214 4.645C13.117 4.66193 13.2127 4.70707 13.3083 4.724C13.5839 4.78043 13.1002 4.71835 13.387 4.73528C13.4827 4.74092 13.6458 4.70143 13.7358 4.72964C13.7077 4.71836 13.4714 4.78607 13.6627 4.73528C13.7245 4.71835 13.7864 4.70707 13.8427 4.69014C13.8877 4.67886 13.9383 4.65629 13.9833 4.645C14.1239 4.61679 13.7977 4.75221 13.9214 4.67321C14.0114 4.61679 14.1183 4.57164 14.2083 4.51522C14.2252 4.50393 14.332 4.43622 14.3264 4.43057C14.3208 4.41929 14.1127 4.62243 14.2702 4.47008C14.2927 4.4475 14.5345 4.22744 14.5233 4.21051C14.5177 4.19922 14.3658 4.4475 14.4783 4.26694C14.5064 4.22744 14.5345 4.18794 14.557 4.1428C14.5683 4.12022 14.7089 3.90016 14.692 3.88323C14.6808 3.87195 14.602 4.15972 14.6583 3.9453C14.6695 3.89452 14.6864 3.84937 14.7033 3.80423C14.7145 3.75345 14.7258 3.70831 14.737 3.65752C14.7989 3.41488 14.737 3.9058 14.737 3.65188C14.737 3.54467 14.737 3.4431 14.737 3.34153C14.7314 3.15532 14.7314 3.42053 14.7539 3.41488C14.7595 3.41488 14.7202 3.25689 14.7258 3.26817C14.7202 3.23996 14.6583 2.98039 14.6414 2.98039C14.6245 2.98039 14.7539 3.20046 14.6695 3.04811C14.6358 2.98039 14.602 2.91832 14.5627 2.85625C14.5402 2.81675 14.5064 2.77726 14.4839 2.73211C14.3939 2.57976 14.512 2.80547 14.5289 2.78854C14.5402 2.77726 14.3433 2.59105 14.332 2.57412C14.3377 2.57976 14.2252 2.47255 14.2252 2.47819C14.2083 2.48948 14.4277 2.61362 14.2814 2.52333C14.1745 2.46126 14.0733 2.39919 13.9664 2.33712C13.7752 2.23555 14.0283 2.37098 14.0339 2.36534C14.0339 2.35969 13.9102 2.32584 13.8933 2.32019C13.8652 2.31455 13.6064 2.2412 13.6008 2.25248C13.5895 2.28634 13.8595 2.26377 13.6739 2.26941C13.6064 2.26941 13.5445 2.26377 13.477 2.26377C13.4264 2.26377 13.3758 2.26941 13.3195 2.26941C13.1789 2.26941 13.5614 2.21863 13.3533 2.26377C13.3195 2.26941 12.9877 2.34277 12.9933 2.36534C12.9933 2.37662 13.252 2.23555 13.0608 2.33712C12.9933 2.37098 12.9314 2.40483 12.8695 2.44433C12.8302 2.46691 12.7908 2.50076 12.7458 2.52333C12.577 2.6249 12.8583 2.40483 12.7739 2.50076C12.7008 2.57976 12.6164 2.65312 12.5433 2.73211C12.3745 2.9014 12.6333 2.57412 12.5602 2.7039C12.532 2.75468 12.4927 2.80547 12.4589 2.85625C12.4364 2.89575 12.4083 2.94089 12.3858 2.98604C12.3689 3.01989 12.352 3.05375 12.3352 3.08761C12.3014 3.1666 12.3127 3.13275 12.3802 2.99168C12.3577 2.98604 12.2845 3.33024 12.2789 3.35281C12.2339 3.52774 12.307 3.27382 12.2845 3.27946C12.2564 3.27946 12.262 3.49388 12.262 3.50517C12.2508 4.09765 11.7502 4.66193 11.137 4.63371C10.5352 4.6055 10.0008 4.13715 10.012 3.50517C10.0345 1.99856 10.9739 0.695088 12.3858 0.187242C13.6908 -0.281105 15.2602 0.153386 16.1433 1.21986C17.0939 2.35969 17.2796 4.00173 16.5089 5.29391C15.727 6.59738 14.2195 7.21244 12.7458 6.92466C11.1483 6.60867 10.0345 5.09642 10.012 3.50517C10.0008 2.91268 10.5352 2.34841 11.137 2.37662C11.7558 2.40484 12.2508 2.87318 12.262 3.50517Z" fill="#16CCCF"/>
</svg>
