<svg width="27" height="26" viewBox="0 0 27 26" fill="none" xmlns="http://www.w3.org/2000/svg">
<circle cx="13.5" cy="13" r="13" fill="#455A64"/>
<path d="M13.5 12.2353C16.034 12.2353 18.0882 10.1811 18.0882 7.64707C18.0882 5.11306 16.034 3.05884 13.5 3.05884C10.966 3.05884 8.91174 5.11306 8.91174 7.64707C8.91174 10.1811 10.966 12.2353 13.5 12.2353Z" fill="white"/>
<path d="M13.7039 24.4705C10.8803 24.4705 8.48761 23.1166 7.05688 22.0023C6.25348 21.3766 5.99761 20.3043 6.23556 19.3142C6.8335 16.8261 7.94738 13.7646 13.7039 13.7646C18.6327 13.7646 20.8819 16.822 21.6321 19.4244C21.8948 20.3354 21.5056 21.2882 20.7469 21.8567C19.2276 22.9947 16.713 24.4705 13.7039 24.4705Z" fill="white"/>
</svg>
